<svg width="1920" height="1080" viewBox="0 0 1920 1080" fill="none" xmlns="http://www.w3.org/2000/svg">
  <defs>
    <linearGradient id="heroBg" x1="0%" y1="0%" x2="100%" y2="100%">
      <stop offset="0%" style="stop-color:#FFA500;stop-opacity:0.8" />
      <stop offset="100%" style="stop-color:#5A2D82;stop-opacity:0.8" />
    </linearGradient>
  </defs>
  <rect width="1920" height="1080" fill="url(#heroBg)"/>
  
  <!-- Industry Icons -->
  <!-- Aerospace -->
  <g transform="translate(200, 300)">
    <path d="M0 0 L50 20 L100 0 L90 30 L60 40 L40 40 L10 30 Z" fill="rgba(255,255,255,0.3)"/>
    <circle cx="50" cy="20" r="8" fill="rgba(255,255,255,0.5)"/>
  </g>
  
  <!-- Automotive -->
  <g transform="translate(500, 350)">
    <rect x="0" y="20" width="80" height="30" fill="rgba(255,255,255,0.3)" rx="15"/>
    <circle cx="20" cy="50" r="15" fill="rgba(255,255,255,0.4)"/>
    <circle cx="60" cy="50" r="15" fill="rgba(255,255,255,0.4)"/>
  </g>
  
  <!-- Medical -->
  <g transform="translate(800, 300)">
    <path d="M40 0 L40 20 L20 20 L20 40 L60 40 L60 20 L40 20 Z" fill="rgba(255,255,255,0.3)"/>
    <circle cx="40" cy="50" r="15" fill="rgba(255,255,255,0.4)"/>
  </g>
  
  <!-- Energy -->
  <g transform="translate(1100, 320)">
    <circle cx="40" cy="40" r="30" fill="rgba(255,255,255,0.2)" stroke="rgba(255,255,255,0.4)" stroke-width="3"/>
    <path d="M40 10 L40 30 M40 50 L40 70 M10 40 L30 40 M50 40 L70 40" stroke="rgba(255,255,255,0.6)" stroke-width="3"/>
  </g>
  
  <!-- Robotics -->
  <g transform="translate(1400, 350)">
    <rect x="20" y="20" width="40" height="30" fill="rgba(255,255,255,0.3)" rx="5"/>
    <circle cx="30" cy="15" r="8" fill="rgba(255,255,255,0.4)"/>
    <circle cx="50" cy="15" r="8" fill="rgba(255,255,255,0.4)"/>
    <rect x="25" y="50" width="10" height="20" fill="rgba(255,255,255,0.3)"/>
    <rect x="45" y="50" width="10" height="20" fill="rgba(255,255,255,0.3)"/>
  </g>
  
  <!-- Manufacturing Lines -->
  <rect x="100" y="600" width="800" height="8" fill="rgba(255,255,255,0.3)" rx="4"/>
  <rect x="100" y="650" width="800" height="8" fill="rgba(255,255,255,0.3)" rx="4"/>
  <rect x="100" y="700" width="800" height="8" fill="rgba(255,255,255,0.3)" rx="4"/>
  
  <!-- Production Units -->
  <rect x="200" y="580" width="60" height="40" fill="rgba(255,255,255,0.2)" rx="4"/>
  <rect x="300" y="580" width="60" height="40" fill="rgba(255,255,255,0.2)" rx="4"/>
  <rect x="400" y="580" width="60" height="40" fill="rgba(255,255,255,0.2)" rx="4"/>
  <rect x="500" y="580" width="60" height="40" fill="rgba(255,255,255,0.2)" rx="4"/>
  <rect x="600" y="580" width="60" height="40" fill="rgba(255,255,255,0.2)" rx="4"/>
  <rect x="700" y="580" width="60" height="40" fill="rgba(255,255,255,0.2)" rx="4"/>
  
  <!-- Quality Control -->
  <circle cx="1600" cy="600" r="40" fill="rgba(255,255,255,0.2)"/>
  <path d="M1580 600 L1590 610 L1620 580" stroke="rgba(255,255,255,0.6)" stroke-width="4" fill="none"/>
</svg>
